<?xml version="1.0" encoding="utf-8"?>
<!-- Generator: Adobe Illustrator 27.9.0, SVG Export Plug-In . SVG Version: 6.00 Build 0)  -->
<svg version="1.1" id="Layer_1" xmlns="http://www.w3.org/2000/svg" xmlns:xlink="http://www.w3.org/1999/xlink" x="0px" y="0px"
	 viewBox="0 0 1080 1080" style="enable-background:new 0 0 1080 1080;" xml:space="preserve">
<style type="text/css">
	.st0{fill:#3D5B62;}
	.st1{fill:#A94227;}
	.st2{fill:#EAA048;}
	.st3{fill:#FCEED6;}
</style>
<g>
	<path class="st0" d="M560.29,1071.79c4.87,0.23,9.71,0.32,14.53,0.27v0.02c-13.55,1.34-39.03,2.92-52.75,2.92
		c-40.24,0-81.19-5.79-122.25-17.29c-52.08-14.64-102.79-37.99-150.7-69.44c-46.66-30.57-88.56-67.41-124.6-109.47
		c-36.31-42.39-64.86-88-84.76-135.51c-14.49-34.56-24.06-69.54-28.44-103.95c-4.58-35.93-3.54-71.24,3.18-105
		c14.62-73.68,55.21-138.66,120.65-193.12c79.39-58.39,148.11-72.7,208.75-85.33c7.77-1.62,22.12-3.8,26.79-5.72
		c2.17-0.89,3.5-2.64,4.3-4.53c3.13-7.25-3.54-18.55-7.95-25.99l-0.14-0.24c-6.2-10.01-6.29-17.57-3.22-19.86
		c0.69-0.52,1.56-0.76,2.5-0.76c3.21,0,7.6,2.81,12.06,7.85c2.85,3.01,5.5,6.52,8.07,9.92c2.79,3.66,5.66,7.45,8.85,10.76
		c8.09,8.76,16.76,11.28,22.85,9.71c0.7-0.26,1.36-0.5,2.06-0.76c0.99-0.44,1.88-1.07,2.64-1.76c5.13-4.7,5.31-14.88-5.75-27.08
		c-2.73-3.01-5.92-5.54-9.02-8c-3.69-2.93-7.48-5.94-10.38-9.69c-6.41-8.23-4.73-17.32,0.09-21.72c2.06-1.91,4.91-3.16,8.38-3.16
		c4.61,0,10.29,2.24,16.65,8.17c2.05,1.95,4.08,3.97,6.04,5.91c4.81,4.78,9.78,9.72,15.45,13.78c15.36,11.46,32.42,14.33,38.86,6.59
		c2.44-2.98,4.26-8.76-1.02-19.49c-2.44-4.95-6.11-10.35-10.93-16.16c-4.82-5.8-10.82-12-17.98-18.59
		c-10.65-9.56-13.3-18.56-12.18-23.8c0.69-3.22,2.7-5.46,5.83-6.47c8.01-2.58,20.96,3.25,34.63,15.63
		c9.43,8.94,38.68,16.78,48.94,8.81c3.1-2.46,5.62-7.53-0.17-17.8c-2.92-5.72-8.47-9.37-13.8-12.88
		c-4.49-2.96-9.11-5.98-12.23-10.24c-1.8-2.43-2.29-5.16-1.24-6.73c0.85-1.31,2.66-1.69,5.04-1.13c3.28,0.78,6.47,2.11,9.57,3.42
		c3.94,1.65,8.03,3.36,12.3,3.91c11.17,1.42,23.95-2.64,28.25-12.23C563.96,72.45,577.91,33.13,586.2,5
		c-9.36,49.07-20.84,89.31-35.41,122.59c-14.59,33.25-32.28,59.53-54.07,80.72c-40.51,39.37-91.02,58.26-154.93,82.18
		c-27.89,10.43-44.48,16.87-78.64,29.84c-2.11,0.79-19.28,7.86-23.93,11.46c-12.15,9.4-18.97,25.9-15.37,40.82
		c1.56,6.4,4.87,12.24,8.07,17.94c2.52,4.5,5.16,9.17,6.93,14.09c1.3,3.62,0.98,6.47-0.92,8.04c-2.29,1.92-6.56,1.65-10.62-0.72
		c-6.72-3.88-11.19-9.57-15.92-15.58c-6.08-7.74-12.38-15.71-23.86-20.01c-7.1-2.67-16.97-0.89-25.12,4.58
		c-8.12,5.43-12.91,13.16-13.14,21.2c-0.49,16.15,11.84,28.22,23.75,39.89c3.22,3.17,6.55,6.43,9.54,9.69l0.03,0.03
		c21.09,17.43,32.27,35.57,29.93,48.56c-0.98,5.39-4.35,9.33-9.49,11.13c-7.89,2.7-22.07,0.53-38.16-13.74
		c-34.68-30.1-64.22-43.98-81.04-38.1c-6.37,2.24-10.41,7.08-11.68,14.07c-2.56,13.84,6.29,32.05,21.98,45.29
		c7.43,8.17,16.15,15.28,24.59,22.15c3.02,2.46,6.15,5.01,9.17,7.57c17.78,15.2,17.83,29.31,11.95,37.43
		c-5.91,8.17-19.58,12.29-33.31,3.98c-6.23-3.8-11.49-9.11-16.55-14.23c-4.26-4.27-8.67-8.7-13.65-12.27
		c-17.1-12.03-27.95-9.8-32.94-7.4c-5.83,2.82-9.57,8.78-9.95,15.94c-0.6,10.38,5.69,21.03,16.44,27.83
		c5.59,4.34,11.86,8.01,17.94,11.62c5.62,3.34,11.48,6.79,16.56,10.65c11.07,7.68,16.32,15.94,13.34,21.05
		c-2.84,4.99-13.75,6.67-30.91-1.4c-1.62-0.7-3.22-1.45-4.82-2.18c-6.53-3.02-12.84-5.91-17.45-5.91c-1.66,0-3.11,0.37-4.29,1.24
		c-2.32,1.74-3.75,5.37-3.18,10.94c0.21,1.89,0.72,3.79,1.1,5.68c38.36,189.35,228.93,397.83,481.43,418.99
		c9.75,1.02,25.52,1.18,39.03,1.08C559.19,1071.73,559.74,1071.76,560.29,1071.79z"/>
	<path class="st0" d="M574.82,1072.07c-4.82,0.05-9.66-0.05-14.53-0.27c-0.55-0.03-1.1-0.06-1.65-0.09
		c5.77-0.05,11.13-0.12,15.43-0.2c0.24,0.03,0.47,0.06,0.69,0.03L574.82,1072.07z"/>
	<path class="st0" d="M545.84,32.15c-82.64,9.25-140.87,31.09-182.88,68.54c-37.27,33.2-62.87,79.53-82.81,149.83
		c8.04-58.84,21.57-118.43,62.78-158.84C383.67,51.78,448.25,32.81,545.84,32.15z"/>
	<path class="st0" d="M236.04,576.09c-32.91,57.07-88.87,96.93-166.27,118.53c84.84-35,142.23-92.61,170.61-171.31
		c18.23-50.59,24.21-110.71,17.29-174.13C268.55,391.43,285.49,490.37,236.04,576.09z"/>
	<path class="st1" d="M800.86,947.06c-0.02,0.03-0.05,0.08-0.06,0.11c-48.63,74.46-132.86,124.19-225.97,124.91l-0.06-0.53
		c-0.21,0.03-0.44,0-0.69-0.03c-4.3,0.08-9.66,0.15-15.43,0.2c-124.36-6.52-242.81-84.41-295.12-194.22
		c-56.92-119.46-54.61-282.09,70.7-401.35c53.07-50.52,83.02-72.72,134.74-108.42c43.55-30.07,88.04-60.77,123.81-95.34
		c0.15,0.63,0.29,1.25,0.4,1.88c0.08,0.37,0.14,0.72,0.2,1.08c0.02,0.09,0.03,0.2,0.05,0.29l0.05,0.23
		c0.06,0.35,0.12,0.69,0.17,1.04c0.08,0.46,0.14,0.93,0.18,1.39c0.05,0.44,0.09,0.9,0.14,1.36c0.01,0.24,0.03,0.47,0.05,0.69
		c0.06,0.78,0.09,1.54,0.14,2.32c0.79,21.05-9.94,45.96-35.31,75.69c-26.18,30.73-61.41,61.06-92.5,87.8
		c-10.04,8.64-19.4,16.71-27.69,24.13c-8.3,7.4-15.57,14.23-21.43,20.35c-54.91,59.56-90.43,123.62-105.61,190.42
		c-13.48,59.35-10.06,120.02,9.86,175.45c18.26,50.72,49.62,95.71,90.71,130.05c41.23,34.44,87.88,54.17,138.98,61.13
		c13.91,1.89,27.67,2.82,41.27,2.82c14.35,0,28.5-1.05,42.3-3.14c24.73-3.79,48.49-10.94,70.63-21.28
		C741.39,1009.23,778.55,977,800.86,947.06z"/>
	<path class="st1" d="M574.82,1072.07c-4.82,0.05-9.66-0.05-14.53-0.27c-0.55-0.03-1.1-0.06-1.65-0.09
		c5.77-0.05,11.13-0.12,15.43-0.2c0.24,0.03,0.47,0.06,0.69,0.03L574.82,1072.07z"/>
	<path class="st2" d="M770.43,567.61c-0.12,0.03-0.26,0.06-0.38,0.09c-1.74,0.4-3.47,0.76-5.17,1.11c-0.03,0-0.03,0-0.03,0
		c-2.29,0.46-4.55,0.89-6.78,1.3c-2.26,0.4-4.5,0.73-6.72,1.05c-1.39,0.2-2.79,0.4-4.18,0.56c-1.72,0.23-3.5,0.43-5.19,0.6
		c-1.79,0.2-3.53,0.35-5.25,0.47c-0.85,0.06-1.74,0.12-2.56,0.17c-1.97,0.12-3.92,0.21-5.86,0.27c-1.94,0.06-3.85,0.09-5.79,0.09
		c-2.11,0-4.2-0.03-6.27-0.09c-20.47-0.7-40.57-5.42-58.16-13.71c-18.94-8.91-34.56-21.87-45.21-37.47l-0.26-0.4l0.47-0.05
		c0.99-0.05,1.97-0.12,2.93-0.2c0.5-0.02,0.98-0.05,1.47-0.09c4.64-0.37,9.16-0.89,13.54-1.53c1.28-0.2,2.58-0.4,3.85-0.61
		c1.08-0.18,2.14-0.38,3.19-0.56c1.37-0.26,2.73-0.52,4.09-0.79c1.79-0.37,3.57-0.76,5.31-1.18c1.76-0.43,3.46-0.84,5.16-1.28
		c1.68-0.44,3.34-0.92,4.99-1.37c0.79-0.23,1.62-0.47,2.41-0.72c0.96-0.31,1.92-0.6,2.9-0.92c0.92-0.32,1.88-0.61,2.82-0.93
		c1.18-0.4,2.35-0.81,3.51-1.24c0.73-0.26,1.48-0.53,2.21-0.81c1.05-0.4,2.06-0.79,3.07-1.18c2.62-1.01,5.14-2.08,7.52-3.13
		c0.9-0.4,1.82-0.81,2.7-1.21c4.96-2.29,9.42-4.58,13.32-6.76c2-1.11,6.87-4.03,7.43-4.41c2.75-1.69,5.27-3.34,7.51-4.92
		c0.64-0.44,7.63-5.63,8.21-6.11c0.46-0.35,4.38-3.76,6.08-5.25c0.47-0.41,0.78-0.67,0.78-0.67c-6.67,23.25-5.07,44.24,5.42,60.22
		C741.71,548.48,752.82,560.42,770.43,567.61z"/>
	<path class="st2" d="M800.89,947.01c0,0.02-0.02,0.03-0.03,0.05c-22.3,29.95-59.47,62.17-95.51,79.01
		c-22.13,10.33-45.9,17.49-70.63,21.28c-13.8,2.09-27.95,3.14-42.3,3.14c-13.6,0-27.37-0.93-41.27-2.82
		c-51.11-6.96-97.75-26.7-138.98-61.13c-41.09-34.34-72.46-79.33-90.71-130.05c-19.92-55.42-23.34-116.1-9.86-175.45
		c15.19-66.8,50.71-130.86,105.61-190.42c5.86-6.12,13.13-12.94,21.43-20.35c8.29-7.42,17.64-15.49,27.69-24.13
		c31.09-26.74,66.32-57.07,92.5-87.8c25.37-29.73,36.1-54.65,35.31-75.69c-0.03-0.78-0.06-1.56-0.14-2.32
		c-0.02-0.21-0.03-0.44-0.05-0.69c-0.05-0.46-0.08-0.9-0.14-1.36c-0.05-0.46-0.11-0.93-0.18-1.39c-0.05-0.35-0.11-0.69-0.17-1.04
		l-0.05-0.23c-0.02-0.09-0.03-0.2-0.05-0.29c-0.06-0.37-0.12-0.72-0.2-1.08c-0.11-0.63-0.24-1.25-0.4-1.88
		c21.16-20.47,39.66-42.75,52.65-66.57c4.53-6.64,8.93-17.52,13.04-30.79c0-0.05,0.03-0.12,0.06-0.17
		c4.96-14.32,10.47-37.32,14.3-58.23c-3.91,39.41,3.1,67.74,11.88,90.56c0,0.03,0.02,0.08,0.05,0.11
		c2.99,8.61,6.21,16.35,9.33,23.22c7.04,15.57,13.66,29.17,14.07,43.32c0.02,0.76,0.02,1.54,0,2.32c0,0.31,0,0.61-0.01,0.92
		c-0.05,1.04-0.11,2.09-0.23,3.13c-0.05,0.49-0.11,0.98-0.18,1.47c-2.15,15.04-11.81,30.44-29.19,48.07
		c-14.44,14.67-39.98,37.23-69.54,63.36c-51.59,45.53-110.07,97.17-131.45,126.28c-14.81,17.97-27.55,36.02-38.42,54.1
		c-0.06,0.11-0.12,0.21-0.18,0.32c-45.67,73.54-61.44,147.47-45.7,216.52c17.9,78.5,76.99,147.77,158.06,185.29
		C619.81,1007.29,726.25,1018.8,800.89,947.01z"/>
	<path class="st3" d="M1070.54,508.41c-5.24-80.3-24.65-151.07-61.09-222.66c-16.47-32.33-42.11-68.54-76.18-107.61
		C871.7,113.1,808.21,74.79,765.82,54.15c-43.56-21.23-74.4-28.71-77.71-29.51c-0.55,4.11-6.43,47.73-15.36,91.97h0.06
		c-3.91,39.41,3.1,67.74,11.88,90.56c0,0.03,0.02,0.08,0.05,0.11c2.99,8.61,6.21,16.35,9.33,23.22
		c7.04,15.57,13.66,29.17,14.07,43.32c0.02,0.76,0.02,1.54,0,2.32c0,0.31,0,0.61-0.01,0.92c-0.05,1.04-0.11,2.09-0.23,3.13
		c-0.05,0.49-0.11,0.98-0.18,1.47c-2.15,15.04-11.81,30.44-29.19,48.07c-14.44,14.67-39.98,37.23-69.54,63.36
		c-51.59,45.53-110.07,97.17-131.45,126.28c-14.81,17.97-27.55,36.02-38.42,54.1c-0.06,0.11-0.12,0.21-0.18,0.32
		c-45.67,73.54-61.44,147.47-45.7,216.52c17.9,78.5,76.99,147.77,158.06,185.29c68.52,31.7,174.96,43.21,249.6-28.57
		c0.01,0,0.01-0.02,0.01-0.02c32.53-61.85,28.15-138.42-11.02-190.53c-41.7-55.55-120.6-76.14-179.55-46.86
		c-13.57,6.73-32.08,15.97-43.36,4.96c-9.59-9.2-5.19-25.09,1.48-35.89c22.9-37.14,68.19-59.79,138.52-69.27
		c8.11-1.07,16.44-2.08,24.51-3.04c44.94-5.37,91.37-10.9,128.86-35.95c4.26-2.85,8.81-6.47,9.97-11.57
		c0.72-3.1,0.03-6.29-1.98-9.25c-2.7-3.94-7.34-6.81-12.14-7.48c-8.12-1.14-16.07,2.05-23.77,5.14l-0.35,0.12
		c-21.52,8.73-39.31,14.75-55.88,18.85l-0.87,0.21c-1.62,0.41-3.25,0.78-4.87,1.14h-0.02c-0.12,0.03-0.26,0.06-0.38,0.09
		c-1.74,0.4-3.47,0.76-5.17,1.11c-0.03,0-0.03,0-0.03,0c-2.29,0.46-4.55,0.89-6.78,1.3c-2.26,0.4-4.5,0.73-6.72,1.05
		c-1.39,0.2-2.79,0.4-4.18,0.56c-1.72,0.23-3.5,0.43-5.19,0.6c-1.79,0.2-3.53,0.35-5.25,0.47c-0.85,0.06-1.74,0.12-2.56,0.17
		c-1.97,0.12-3.92,0.21-5.86,0.27c-1.94,0.06-3.85,0.09-5.79,0.09c-2.11,0-4.2-0.03-6.27-0.09c-20.47-0.7-40.57-5.42-58.16-13.71
		c-18.94-8.91-34.56-21.87-45.21-37.47l-0.26-0.4l0.47-0.05c0.99-0.05,1.97-0.12,2.93-0.2c0.5-0.02,0.98-0.05,1.47-0.09
		c4.64-0.37,9.16-0.89,13.54-1.53c1.28-0.2,2.58-0.4,3.85-0.61c1.08-0.18,2.14-0.38,3.19-0.56c1.37-0.26,2.73-0.52,4.09-0.79
		c1.79-0.37,3.57-0.76,5.31-1.18c1.76-0.43,3.46-0.84,5.16-1.28c1.68-0.44,3.34-0.92,4.99-1.37c0.79-0.23,1.62-0.47,2.41-0.72
		c0.96-0.31,1.92-0.6,2.9-0.92c0.92-0.32,1.88-0.61,2.82-0.93c1.18-0.4,2.35-0.81,3.51-1.24c0.73-0.26,1.48-0.53,2.21-0.81
		c1.05-0.4,2.06-0.79,3.07-1.18c2.62-1.01,5.14-2.08,7.52-3.13c0.9-0.4,1.82-0.81,2.7-1.21c4.96-2.29,9.42-4.58,13.32-6.76
		c2-1.11,6.87-4.03,7.43-4.41c2.75-1.69,5.27-3.34,7.51-4.92c0.64-0.44,7.63-5.63,8.21-6.11c0.46-0.35,4.38-3.76,6.08-5.25
		c0.47-0.41,0.78-0.67,0.78-0.67s41.79-2.2,87.62,4.95c28.5,4.4,54.77,11.39,78.11,20.68c29.18,11.66,53.87,27.05,73.33,45.69
		c8.55,8.2,30.44,32.41,48.46,80.11c10,26.53,2.84,74.64-9.31,83.6c-4.3,3.14-5.98,7.04-4.72,10.93c1.79,5.45,8.95,9.42,17.05,9.42
		c5.69,0.37,16.32-0.35,20.32-5.36c1.6-2,1.97-4.5,1.11-7.48c-2.79-9.65,5.25-36.22,13.01-61.93c5.28-17.42,10.73-35.46,12.7-47.88
		C1071.14,574.49,1072.69,541.76,1070.54,508.41z M734.9,183.56c-8.72-12.9-15.11-29.35-19.02-48.97
		c-6.63-33.35-3.75-64.64-3.73-64.96l0.03-0.32l0.32,0.08c0.3,0.06,32.33,8.01,63.61,24.06c18.38,9.42,32.89,19.78,43.15,30.76
		c12.87,13.72,19.06,28.48,18.41,43.85c0.03,0.7,0.06,1.39,0.06,2.08c0,0.9-0.03,1.82-0.09,2.73v0.09c-0.05,0.84-0.12,1.68-0.2,2.49
		c-0.03,0.15-0.03,0.29-0.03,0.44c-0.09,0.69-0.2,1.37-0.32,2.05c-0.06,0.46-0.12,0.93-0.21,1.37c-0.03,0.09-0.05,0.21-0.08,0.32
		c-0.15,0.78-0.32,1.57-0.5,2.37c-0.09,0.38-0.21,0.78-0.3,1.14c-0.11,0.4-0.23,0.76-0.35,1.16c-0.02,0.11-0.05,0.17-0.08,0.27
		c-0.12,0.52-0.29,1.01-0.44,1.5c-0.24,0.61-0.44,1.24-0.7,1.85c-0.18,0.49-0.38,0.99-0.59,1.45c-0.09,0.24-0.23,0.49-0.32,0.73
		c0,0.03-0.03,0.03-0.03,0.06c-0.2,0.44-0.41,0.9-0.61,1.34c-0.29,0.6-0.61,1.19-0.92,1.76c-0.82,1.54-1.76,3.02-2.75,4.43
		c-0.5,0.72-1.04,1.42-1.57,2.09v0.02c-1.08,1.36-2.24,2.67-3.5,3.89c-1.25,1.25-2.58,2.41-3.98,3.53
		c-8.07,6.29-17.84,9.57-28.07,9.57c-4.63,0-9.3-0.67-13.98-2C760.33,210.18,745.77,199.66,734.9,183.56z M1033.62,557.53
		l-0.12,0.44l-0.32-0.29c-13.33-12.14-25.51-25.86-37.28-39.14c-15.22-17.17-30.97-34.94-49.62-49.78
		c-33.43-26.77-70.15-48.81-109.18-65.51c-1.77-0.73-3.49-1.48-5.27-2.21c-17.75-7.56-36.13-15.36-47.87-30.51
		c-0.47-0.66-0.99-1.3-1.43-1.97c-0.03-0.05-0.09-0.09-0.12-0.14c-0.24-0.35-0.44-0.67-0.67-1.01c-0.06-0.06-0.09-0.14-0.12-0.18
		c-0.35-0.49-0.67-0.98-0.98-1.47c-0.02-0.06-0.05-0.08-0.08-0.14c-0.12-0.18-0.26-0.41-0.35-0.61c-0.06-0.09-0.12-0.17-0.18-0.27
		c-0.32-0.5-0.61-1.01-0.89-1.51c-0.03-0.08-0.08-0.14-0.08-0.2c-0.2-0.31-0.34-0.56-0.47-0.87c-0.03-0.05-0.06-0.12-0.11-0.17
		c-0.38-0.69-0.72-1.37-1.04-2.05c-0.35-0.81-0.73-1.6-1.08-2.41l-0.35-0.89c-0.26-0.64-0.5-1.25-0.76-1.89
		c-0.09-0.27-0.2-0.53-0.29-0.81c-0.21-0.61-0.41-1.24-0.6-1.88c-0.2-0.5-0.32-1.01-0.49-1.53c-0.05-0.14-0.09-0.31-0.15-0.46
		c0-0.11-0.06-0.23-0.06-0.32c-0.2-0.64-0.38-1.28-0.52-1.92c-0.12-0.41-0.21-0.81-0.31-1.22c-0.21-0.87-0.38-1.72-0.56-2.59
		c-0.11-0.64-0.23-1.25-0.34-1.89c-0.05-0.17-0.08-0.37-0.09-0.56c-0.12-0.66-0.23-1.33-0.3-1.97c-0.08-0.56-0.17-1.13-0.23-1.69
		c-0.09-0.89-0.18-1.77-0.26-2.66c-0.15-1.76-0.24-3.5-0.3-5.16c-0.02-0.84-0.02-1.68-0.02-2.49c0-5.51,0.46-10.44,1.02-14.32
		c2.32-15.78,8.56-31.31,17.61-43.78c9.77-13.48,22.45-23.05,36.63-27.67c21.75-7.01,47.49-2.82,70.63,11.46
		c22.51,13.95,39.32,35.18,51.46,52.11c28.15,39.34,49.93,83.04,64.75,129.93c0.79,2.46,1.62,5.04,2.47,7.74
		C1025.89,476.22,1041.89,526.32,1033.62,557.53z"/>
	<path class="st2" d="M1015.3,443.08c-0.85-2.7-1.68-5.28-2.47-7.74c-14.82-46.89-36.6-90.59-64.75-129.93
		c-12.14-16.93-28.94-38.16-51.46-52.11c-23.14-14.29-48.88-18.47-70.63-11.46c-14.18,4.62-26.86,14.2-36.63,27.67
		c-9.05,12.47-15.29,27.99-17.61,43.78c-0.56,3.88-1.02,8.81-1.02,14.32c0,0.81,0,1.65,0.02,2.49c0.06,1.66,0.15,3.4,0.3,5.16
		c0.08,0.89,0.17,1.77,0.26,2.66c0.06,0.56,0.15,1.13,0.23,1.69c0.08,0.64,0.18,1.31,0.3,1.97c0.02,0.2,0.05,0.4,0.09,0.56
		c0.11,0.64,0.23,1.25,0.34,1.89c0.18,0.87,0.35,1.72,0.56,2.59c0.09,0.41,0.18,0.81,0.31,1.22c0.14,0.64,0.32,1.28,0.52,1.92
		c0,0.09,0.06,0.21,0.06,0.32c0.06,0.15,0.11,0.32,0.15,0.46c0.17,0.52,0.29,1.02,0.49,1.53c0.18,0.64,0.38,1.27,0.6,1.88
		c0.09,0.27,0.2,0.53,0.29,0.81c0.26,0.64,0.5,1.25,0.76,1.89l0.35,0.89c0.35,0.81,0.73,1.6,1.08,2.41
		c0.32,0.67,0.66,1.36,1.04,2.05c0.05,0.05,0.08,0.12,0.11,0.17c0.14,0.31,0.27,0.56,0.47,0.87c0,0.06,0.05,0.12,0.08,0.2
		c0.28,0.5,0.56,1.01,0.89,1.51c0.06,0.11,0.12,0.18,0.18,0.27c0.09,0.2,0.23,0.43,0.35,0.61c0.03,0.06,0.06,0.08,0.08,0.14
		c0.31,0.49,0.63,0.98,0.98,1.47c0.03,0.05,0.06,0.12,0.12,0.18c0.23,0.34,0.43,0.66,0.67,1.01c0.03,0.05,0.09,0.09,0.12,0.14
		c0.44,0.67,0.96,1.31,1.43,1.97c11.74,15.16,30.12,22.96,47.87,30.51c1.77,0.73,3.5,1.48,5.27,2.21
		c39.03,16.7,75.76,38.74,109.18,65.51c18.65,14.84,34.41,32.6,49.62,49.78c11.77,13.28,23.95,27,37.28,39.14l0.32,0.29l0.12-0.44
		C1041.89,526.32,1025.89,476.22,1015.3,443.08z M872.23,359.98c-16.1,0-29.22-13.11-29.22-29.23c0-16.12,13.11-29.23,29.22-29.23
		c16.12,0,29.23,13.11,29.23,29.23C901.46,346.87,888.35,359.98,872.23,359.98z"/>
	<path class="st1" d="M901.46,330.75c0,16.12-13.11,29.23-29.23,29.23c-16.1,0-29.22-13.11-29.22-29.23
		c0-16.12,13.11-29.23,29.22-29.23C888.35,301.52,901.46,314.63,901.46,330.75z"/>
	<path class="st1" d="M837.73,170.13c0,0.9-0.03,1.82-0.09,2.73v0.09c-0.05,0.84-0.12,1.68-0.2,2.49c-0.03,0.15-0.03,0.29-0.03,0.44
		c-0.09,0.69-0.2,1.37-0.32,2.05c-0.06,0.46-0.12,0.93-0.21,1.37c-0.03,0.09-0.05,0.21-0.08,0.32c-0.15,0.78-0.32,1.57-0.5,2.37
		c-0.09,0.38-0.21,0.78-0.3,1.14c-0.11,0.4-0.23,0.76-0.35,1.16c-0.02,0.11-0.05,0.17-0.08,0.27c-0.12,0.52-0.29,1.01-0.44,1.5
		c-0.24,0.61-0.44,1.24-0.7,1.85c-0.18,0.49-0.38,0.99-0.59,1.45c-0.09,0.24-0.23,0.49-0.32,0.73c0,0.03-0.03,0.03-0.03,0.06
		c-0.2,0.44-0.41,0.9-0.61,1.34c-0.29,0.6-0.61,1.19-0.92,1.76c-0.82,1.54-1.76,3.02-2.75,4.43c-0.5,0.72-1.04,1.42-1.57,2.09v0.02
		c-1.08,1.36-2.24,2.67-3.5,3.89c-1.25,1.25-2.58,2.41-3.98,3.53c-8.07,6.29-17.84,9.57-28.07,9.57c-4.63,0-9.3-0.67-13.98-2
		c-17.77-4.59-32.33-15.11-43.2-31.22c-8.72-12.9-15.11-29.35-19.02-48.97c-6.63-33.35-3.75-64.64-3.73-64.96l0.03-0.32l0.32,0.08
		c0.3,0.06,32.33,8.01,63.61,24.06c18.38,9.42,32.89,19.78,43.15,30.76c12.87,13.72,19.06,28.48,18.41,43.85
		C837.7,168.75,837.73,169.44,837.73,170.13z"/>
</g>
</svg>
