<?xml version="1.0" encoding="utf-8"?>
<!-- Generator: Adobe Illustrator 27.9.0, SVG Export Plug-In . SVG Version: 6.00 Build 0)  -->
<svg version="1.1" id="Layer_1" xmlns="http://www.w3.org/2000/svg" xmlns:xlink="http://www.w3.org/1999/xlink" x="0px" y="0px"
	 viewBox="0 0 160 160" style="enable-background:new 0 0 160 160;" xml:space="preserve">
<style type="text/css">
	.st0{fill:#3D5B62;}
	.st1{fill:#A94227;}
	.st2{fill:#EAA048;}
	.st3{fill:#FCEED6;}
</style>
<g>
	<path class="st0" d="M83.03,159.52c0.73,0.03,1.45,0.05,2.17,0.04v0c-2.03,0.2-5.84,0.44-7.89,0.44c-6.02,0-12.14-0.87-18.28-2.59
		c-7.79-2.19-15.37-5.68-22.53-10.38c-6.98-4.57-13.24-10.08-18.63-16.37c-5.43-6.34-9.7-13.16-12.67-20.26
		c-2.17-5.17-3.6-10.4-4.25-15.54c-0.68-5.37-0.53-10.65,0.47-15.7c2.19-11.02,8.26-20.73,18.04-28.88
		c11.87-8.73,22.15-10.87,31.22-12.76c1.16-0.24,3.31-0.57,4.01-0.86c0.32-0.13,0.52-0.39,0.64-0.68c0.47-1.08-0.53-2.77-1.19-3.89
		l-0.02-0.04c-0.93-1.5-0.94-2.63-0.48-2.97c0.1-0.08,0.23-0.11,0.37-0.11c0.48,0,1.14,0.42,1.8,1.17c0.43,0.45,0.82,0.97,1.21,1.48
		c0.42,0.55,0.85,1.11,1.32,1.61c1.21,1.31,2.51,1.69,3.42,1.45c0.1-0.04,0.2-0.08,0.31-0.11c0.15-0.07,0.28-0.16,0.39-0.26
		c0.77-0.7,0.79-2.23-0.86-4.05c-0.41-0.45-0.89-0.83-1.35-1.2c-0.55-0.44-1.12-0.89-1.55-1.45c-0.96-1.23-0.71-2.59,0.01-3.25
		c0.31-0.29,0.73-0.47,1.25-0.47c0.69,0,1.54,0.34,2.49,1.22c0.31,0.29,0.61,0.59,0.9,0.88c0.72,0.71,1.46,1.45,2.31,2.06
		c2.3,1.71,4.85,2.14,5.81,0.99c0.37-0.45,0.64-1.31-0.15-2.91c-0.37-0.74-0.91-1.55-1.63-2.42c-0.72-0.87-1.62-1.79-2.69-2.78
		c-1.59-1.43-1.99-2.78-1.82-3.56c0.1-0.48,0.4-0.82,0.87-0.97c1.2-0.39,3.13,0.49,5.18,2.34c1.41,1.34,5.78,2.51,7.32,1.32
		c0.46-0.37,0.84-1.13-0.03-2.66c-0.44-0.86-1.27-1.4-2.06-1.93c-0.67-0.44-1.36-0.89-1.83-1.53c-0.27-0.36-0.34-0.77-0.18-1.01
		c0.13-0.2,0.4-0.25,0.75-0.17c0.49,0.12,0.97,0.31,1.43,0.51c0.59,0.25,1.2,0.5,1.84,0.58c1.67,0.21,3.58-0.39,4.22-1.83
		c0.88-1.95,2.97-7.83,4.21-12.04c-1.4,7.34-3.12,13.35-5.3,18.33c-2.18,4.97-4.83,8.9-8.08,12.07
		c-6.06,5.89-13.61,8.71-23.17,12.29c-4.17,1.56-6.65,2.52-11.76,4.46c-0.31,0.12-2.88,1.18-3.58,1.71c-1.82,1.41-2.84,3.87-2.3,6.1
		c0.23,0.96,0.73,1.83,1.21,2.68c0.38,0.67,0.77,1.37,1.04,2.11c0.19,0.54,0.15,0.97-0.14,1.2c-0.34,0.29-0.98,0.25-1.59-0.11
		c-1-0.58-1.67-1.43-2.38-2.33c-0.91-1.16-1.85-2.35-3.57-2.99c-1.06-0.4-2.54-0.13-3.76,0.68c-1.21,0.81-1.93,1.97-1.97,3.17
		c-0.07,2.41,1.77,4.22,3.55,5.96c0.48,0.47,0.98,0.96,1.43,1.45l0,0c3.15,2.61,4.83,5.32,4.48,7.26c-0.15,0.81-0.65,1.39-1.42,1.66
		c-1.18,0.4-3.3,0.08-5.71-2.05c-5.19-4.5-9.6-6.58-12.12-5.7c-0.95,0.34-1.56,1.06-1.75,2.1c-0.38,2.07,0.94,4.79,3.29,6.77
		c1.11,1.22,2.41,2.28,3.68,3.31c0.45,0.37,0.92,0.75,1.37,1.13c2.66,2.27,2.67,4.38,1.79,5.6c-0.88,1.22-2.93,1.84-4.98,0.6
		c-0.93-0.57-1.72-1.36-2.47-2.13c-0.64-0.64-1.3-1.3-2.04-1.84c-2.56-1.8-4.18-1.47-4.93-1.11c-0.87,0.42-1.43,1.31-1.49,2.38
		c-0.09,1.55,0.85,3.15,2.46,4.16c0.84,0.65,1.77,1.2,2.68,1.74c0.84,0.5,1.72,1.02,2.48,1.59c1.65,1.15,2.44,2.38,1.99,3.15
		c-0.42,0.75-2.06,1-4.62-0.21C9,95.13,8.76,95.02,8.52,94.91c-0.98-0.45-1.92-0.88-2.61-0.88c-0.25,0-0.47,0.05-0.64,0.18
		c-0.35,0.26-0.56,0.8-0.47,1.64c0.03,0.28,0.11,0.57,0.16,0.85c5.74,28.31,34.23,59.49,71.99,62.65c1.46,0.15,3.82,0.18,5.84,0.16
		C82.87,159.51,82.95,159.52,83.03,159.52z"/>
	<path class="st0" d="M85.21,159.56c-0.72,0.01-1.44-0.01-2.17-0.04c-0.08,0-0.16-0.01-0.25-0.01c0.86-0.01,1.66-0.02,2.31-0.03
		c0.04,0,0.07,0.01,0.1,0L85.21,159.56z"/>
	<path class="st0" d="M80.87,4.06C68.52,5.44,59.81,8.71,53.53,14.31c-5.57,4.96-9.4,11.89-12.38,22.4
		c1.2-8.8,3.23-17.71,9.39-23.75C56.62,7,66.28,4.16,80.87,4.06z"/>
	<path class="st0" d="M34.55,85.4c-4.92,8.53-13.29,14.49-24.86,17.72C22.37,97.89,30.95,89.27,35.2,77.5
		c2.73-7.56,3.62-16.55,2.59-26.04C39.41,57.78,41.94,72.58,34.55,85.4z"/>
	<path class="st1" d="M119.01,140.87c0,0-0.01,0.01-0.01,0.02c-7.27,11.13-19.87,18.57-33.79,18.68l-0.01-0.08c-0.03,0-0.07,0-0.1,0
		c-0.64,0.01-1.44,0.02-2.31,0.03c-18.6-0.97-36.31-12.62-44.13-29.04c-8.51-17.86-8.17-42.18,10.57-60.02
		c7.94-7.55,12.41-10.87,20.15-16.21c6.51-4.5,13.17-9.09,18.51-14.26c0.02,0.09,0.04,0.19,0.06,0.28c0.01,0.05,0.02,0.11,0.03,0.16
		c0,0.01,0,0.03,0.01,0.04l0.01,0.03c0.01,0.05,0.02,0.1,0.03,0.16c0.01,0.07,0.02,0.14,0.03,0.21c0.01,0.07,0.01,0.13,0.02,0.2
		c0,0.04,0,0.07,0.01,0.1c0.01,0.12,0.01,0.23,0.02,0.35c0.12,3.15-1.49,6.87-5.28,11.32c-3.91,4.59-9.18,9.13-13.83,13.13
		c-1.5,1.29-2.9,2.5-4.14,3.61c-1.24,1.11-2.33,2.13-3.2,3.04c-8.21,8.91-13.52,18.49-15.79,28.47c-2.02,8.87-1.5,17.95,1.47,26.23
		c2.73,7.58,7.42,14.31,13.56,19.45c6.17,5.15,13.14,8.1,20.78,9.14c2.08,0.28,4.14,0.42,6.17,0.42c2.15,0,4.26-0.16,6.32-0.47
		c3.7-0.57,7.25-1.64,10.56-3.18C110.11,150.16,115.67,145.35,119.01,140.87z"/>
	<path class="st1" d="M85.21,159.56c-0.72,0.01-1.44-0.01-2.17-0.04c-0.08,0-0.16-0.01-0.25-0.01c0.86-0.01,1.66-0.02,2.31-0.03
		c0.04,0,0.07,0.01,0.1,0L85.21,159.56z"/>
	<path class="st2" d="M114.46,84.13c-0.02,0-0.04,0.01-0.06,0.01c-0.26,0.06-0.52,0.11-0.77,0.17c0,0,0,0,0,0
		c-0.34,0.07-0.68,0.13-1.01,0.19c-0.34,0.06-0.67,0.11-1,0.16c-0.21,0.03-0.42,0.06-0.63,0.08c-0.26,0.03-0.52,0.06-0.78,0.09
		c-0.27,0.03-0.53,0.05-0.79,0.07c-0.13,0.01-0.26,0.02-0.38,0.03c-0.29,0.02-0.59,0.03-0.88,0.04c-0.29,0.01-0.58,0.01-0.87,0.01
		c-0.31,0-0.63,0-0.94-0.01c-3.06-0.1-6.07-0.81-8.7-2.05c-2.83-1.33-5.17-3.27-6.76-5.6l-0.04-0.06l0.07-0.01
		c0.15-0.01,0.29-0.02,0.44-0.03c0.08,0,0.15-0.01,0.22-0.01c0.69-0.05,1.37-0.13,2.02-0.23c0.19-0.03,0.39-0.06,0.58-0.09
		c0.16-0.03,0.32-0.06,0.48-0.08c0.21-0.04,0.41-0.08,0.61-0.12c0.27-0.05,0.53-0.11,0.79-0.18c0.26-0.06,0.52-0.13,0.77-0.19
		c0.25-0.07,0.5-0.14,0.75-0.21c0.12-0.03,0.24-0.07,0.36-0.11c0.14-0.05,0.29-0.09,0.43-0.14c0.14-0.05,0.28-0.09,0.42-0.14
		c0.18-0.06,0.35-0.12,0.53-0.18c0.11-0.04,0.22-0.08,0.33-0.12c0.16-0.06,0.31-0.12,0.46-0.18c0.39-0.15,0.77-0.31,1.13-0.47
		c0.13-0.06,0.27-0.12,0.4-0.18c0.74-0.34,1.41-0.68,1.99-1.01c0.3-0.17,1.03-0.6,1.11-0.66c0.41-0.25,0.79-0.5,1.12-0.73
		c0.1-0.07,1.14-0.84,1.23-0.91c0.07-0.05,0.65-0.56,0.91-0.79c0.07-0.06,0.12-0.1,0.12-0.1c-1,3.48-0.76,6.61,0.81,9
		C110.16,81.27,111.82,83.05,114.46,84.13z"/>
	<path class="st2" d="M119.01,140.86C119.01,140.86,119.01,140.87,119.01,140.86c-3.34,4.49-8.9,9.3-14.29,11.82
		c-3.31,1.55-6.86,2.62-10.56,3.18c-2.06,0.31-4.18,0.47-6.32,0.47c-2.03,0-4.09-0.14-6.17-0.42c-7.64-1.04-14.62-3.99-20.78-9.14
		c-6.14-5.14-10.84-11.86-13.56-19.45c-2.98-8.29-3.49-17.36-1.47-26.23c2.27-9.99,7.58-19.57,15.79-28.47
		c0.88-0.92,1.96-1.94,3.2-3.04c1.24-1.11,2.64-2.32,4.14-3.61c4.65-4,9.92-8.53,13.83-13.13c3.79-4.45,5.4-8.17,5.28-11.32
		c0-0.12-0.01-0.23-0.02-0.35c0-0.03,0-0.07-0.01-0.1c-0.01-0.07-0.01-0.13-0.02-0.2c-0.01-0.07-0.02-0.14-0.03-0.21
		c-0.01-0.05-0.02-0.1-0.03-0.16l-0.01-0.03c0-0.01,0-0.03-0.01-0.04c-0.01-0.05-0.02-0.11-0.03-0.16
		c-0.02-0.09-0.04-0.19-0.06-0.28c3.16-3.06,5.93-6.39,7.87-9.95c0.68-0.99,1.34-2.62,1.95-4.6c0-0.01,0-0.02,0.01-0.03
		c0.74-2.14,1.57-5.58,2.14-8.71c-0.58,5.89,0.46,10.13,1.78,13.54c0,0,0,0.01,0.01,0.02c0.45,1.29,0.93,2.44,1.39,3.47
		c1.05,2.33,2.04,4.36,2.1,6.48c0,0.11,0,0.23,0,0.35c0,0.05,0,0.09,0,0.14c-0.01,0.16-0.02,0.31-0.03,0.47
		c-0.01,0.07-0.02,0.15-0.03,0.22c-0.32,2.25-1.77,4.55-4.36,7.19c-2.16,2.19-5.98,5.57-10.4,9.47
		c-7.71,6.81-16.46,14.53-19.66,18.88c-2.21,2.69-4.12,5.39-5.75,8.09c-0.01,0.02-0.02,0.03-0.03,0.05
		c-6.83,11-9.19,22.05-6.83,32.38c2.68,11.74,11.51,22.1,23.64,27.71C91.93,149.87,107.85,151.6,119.01,140.86z"/>
	<path class="st3" d="M159.33,75.28c-0.78-12.01-3.69-22.59-9.13-33.29c-2.46-4.83-6.3-10.25-11.39-16.09
		c-9.21-9.73-18.7-15.45-25.04-18.54c-6.51-3.17-11.12-4.29-11.62-4.41c-0.08,0.61-0.96,7.14-2.3,13.75h0.01
		c-0.58,5.89,0.46,10.13,1.78,13.54c0,0,0,0.01,0.01,0.02c0.45,1.29,0.93,2.44,1.39,3.47c1.05,2.33,2.04,4.36,2.1,6.48
		c0,0.11,0,0.23,0,0.35c0,0.05,0,0.09,0,0.14c-0.01,0.16-0.02,0.31-0.03,0.47c-0.01,0.07-0.02,0.15-0.03,0.22
		c-0.32,2.25-1.77,4.55-4.36,7.19c-2.16,2.19-5.98,5.57-10.4,9.47c-7.71,6.81-16.46,14.53-19.66,18.88
		c-2.21,2.69-4.12,5.39-5.75,8.09c-0.01,0.02-0.02,0.03-0.03,0.05c-6.83,11-9.19,22.05-6.83,32.38
		c2.68,11.74,11.51,22.1,23.64,27.71c10.25,4.74,26.16,6.46,37.32-4.27c0,0,0,0,0,0c4.86-9.25,4.21-20.7-1.65-28.49
		c-6.24-8.31-18.03-11.39-26.85-7.01c-2.03,1.01-4.8,2.39-6.48,0.74c-1.43-1.38-0.78-3.75,0.22-5.37
		c3.42-5.55,10.2-8.94,20.71-10.36c1.21-0.16,2.46-0.31,3.67-0.45c6.72-0.8,13.66-1.63,19.27-5.38c0.64-0.43,1.32-0.97,1.49-1.73
		c0.11-0.46,0-0.94-0.3-1.38c-0.4-0.59-1.1-1.02-1.81-1.12c-1.21-0.17-2.4,0.31-3.55,0.77l-0.05,0.02c-3.22,1.31-5.88,2.2-8.36,2.82
		l-0.13,0.03c-0.24,0.06-0.49,0.12-0.73,0.17h0c-0.02,0-0.04,0.01-0.06,0.01c-0.26,0.06-0.52,0.11-0.77,0.17c0,0,0,0,0,0
		c-0.34,0.07-0.68,0.13-1.01,0.19c-0.34,0.06-0.67,0.11-1,0.16c-0.21,0.03-0.42,0.06-0.63,0.08c-0.26,0.03-0.52,0.06-0.78,0.09
		c-0.27,0.03-0.53,0.05-0.79,0.07c-0.13,0.01-0.26,0.02-0.38,0.03c-0.29,0.02-0.59,0.03-0.88,0.04c-0.29,0.01-0.58,0.01-0.87,0.01
		c-0.31,0-0.63,0-0.94-0.01c-3.06-0.1-6.07-0.81-8.7-2.05c-2.83-1.33-5.17-3.27-6.76-5.6l-0.04-0.06l0.07-0.01
		c0.15-0.01,0.29-0.02,0.44-0.03c0.08,0,0.15-0.01,0.22-0.01c0.69-0.05,1.37-0.13,2.02-0.23c0.19-0.03,0.39-0.06,0.58-0.09
		c0.16-0.03,0.32-0.06,0.48-0.08c0.21-0.04,0.41-0.08,0.61-0.12c0.27-0.05,0.53-0.11,0.79-0.18c0.26-0.06,0.52-0.13,0.77-0.19
		c0.25-0.07,0.5-0.14,0.75-0.21c0.12-0.03,0.24-0.07,0.36-0.11c0.14-0.05,0.29-0.09,0.43-0.14c0.14-0.05,0.28-0.09,0.42-0.14
		c0.18-0.06,0.35-0.12,0.53-0.18c0.11-0.04,0.22-0.08,0.33-0.12c0.16-0.06,0.31-0.12,0.46-0.18c0.39-0.15,0.77-0.31,1.13-0.47
		c0.13-0.06,0.27-0.12,0.4-0.18c0.74-0.34,1.41-0.68,1.99-1.01c0.3-0.17,1.03-0.6,1.11-0.66c0.41-0.25,0.79-0.5,1.12-0.73
		c0.1-0.07,1.14-0.84,1.23-0.91c0.07-0.05,0.65-0.56,0.91-0.79c0.07-0.06,0.12-0.1,0.12-0.1s6.25-0.33,13.1,0.74
		c4.26,0.66,8.19,1.7,11.68,3.09c4.36,1.74,8.05,4.04,10.97,6.83c1.28,1.23,4.55,4.85,7.25,11.98c1.49,3.97,0.42,11.16-1.39,12.5
		c-0.64,0.47-0.89,1.05-0.71,1.63c0.27,0.81,1.34,1.41,2.55,1.41c0.85,0.05,2.44-0.05,3.04-0.8c0.24-0.3,0.29-0.67,0.17-1.12
		c-0.42-1.44,0.79-5.42,1.94-9.26c0.79-2.6,1.6-5.3,1.9-7.16C159.42,85.16,159.66,80.26,159.33,75.28z M109.14,26.7
		c-1.3-1.93-2.26-4.39-2.84-7.32c-0.99-4.99-0.56-9.67-0.56-9.71l0-0.05l0.05,0.01c0.05,0.01,4.83,1.2,9.51,3.6
		c2.75,1.41,4.92,2.96,6.45,4.6c1.92,2.05,2.85,4.26,2.75,6.56c0,0.1,0.01,0.21,0.01,0.31c0,0.13,0,0.27-0.01,0.41v0.01
		c-0.01,0.13-0.02,0.25-0.03,0.37c0,0.02,0,0.04,0,0.07c-0.01,0.1-0.03,0.21-0.05,0.31c-0.01,0.07-0.02,0.14-0.03,0.21
		c0,0.01-0.01,0.03-0.01,0.05c-0.02,0.12-0.05,0.24-0.08,0.35c-0.01,0.06-0.03,0.12-0.05,0.17c-0.02,0.06-0.03,0.11-0.05,0.17
		c0,0.02-0.01,0.03-0.01,0.04c-0.02,0.08-0.04,0.15-0.07,0.22c-0.04,0.09-0.07,0.18-0.11,0.28c-0.03,0.07-0.06,0.15-0.09,0.22
		c-0.01,0.04-0.03,0.07-0.05,0.11c0,0,0,0,0,0.01c-0.03,0.07-0.06,0.13-0.09,0.2c-0.04,0.09-0.09,0.18-0.14,0.26
		c-0.12,0.23-0.26,0.45-0.41,0.66c-0.08,0.11-0.16,0.21-0.24,0.31v0c-0.16,0.2-0.34,0.4-0.52,0.58c-0.19,0.19-0.39,0.36-0.6,0.53
		c-1.21,0.94-2.67,1.43-4.2,1.43c-0.69,0-1.39-0.1-2.09-0.3C112.95,30.68,110.77,29.11,109.14,26.7z M153.81,82.62l-0.02,0.07
		l-0.05-0.04c-1.99-1.81-3.81-3.87-5.57-5.85c-2.28-2.57-4.63-5.22-7.42-7.44c-5-4-10.49-7.3-16.33-9.8
		c-0.26-0.11-0.52-0.22-0.79-0.33c-2.65-1.13-5.4-2.3-7.16-4.56c-0.07-0.1-0.15-0.19-0.21-0.29c0-0.01-0.01-0.01-0.02-0.02
		c-0.04-0.05-0.07-0.1-0.1-0.15c-0.01-0.01-0.01-0.02-0.02-0.03c-0.05-0.07-0.1-0.15-0.15-0.22c0-0.01-0.01-0.01-0.01-0.02
		c-0.02-0.03-0.04-0.06-0.05-0.09c-0.01-0.01-0.02-0.03-0.03-0.04c-0.05-0.08-0.09-0.15-0.13-0.23c0-0.01-0.01-0.02-0.01-0.03
		c-0.03-0.05-0.05-0.08-0.07-0.13c0-0.01-0.01-0.02-0.02-0.03c-0.06-0.1-0.11-0.21-0.16-0.31c-0.05-0.12-0.11-0.24-0.16-0.36
		l-0.05-0.13c-0.04-0.1-0.08-0.19-0.11-0.28c-0.01-0.04-0.03-0.08-0.04-0.12c-0.03-0.09-0.06-0.18-0.09-0.28
		c-0.03-0.08-0.05-0.15-0.07-0.23c-0.01-0.02-0.01-0.05-0.02-0.07c0-0.02-0.01-0.03-0.01-0.05c-0.03-0.1-0.06-0.19-0.08-0.29
		c-0.02-0.06-0.03-0.12-0.05-0.18c-0.03-0.13-0.06-0.26-0.08-0.39c-0.02-0.1-0.03-0.19-0.05-0.28c-0.01-0.03-0.01-0.05-0.01-0.08
		c-0.02-0.1-0.03-0.2-0.05-0.29c-0.01-0.08-0.03-0.17-0.03-0.25c-0.01-0.13-0.03-0.26-0.04-0.4c-0.02-0.26-0.04-0.52-0.05-0.77
		c0-0.13,0-0.25,0-0.37c0-0.82,0.07-1.56,0.15-2.14c0.35-2.36,1.28-4.68,2.63-6.55c1.46-2.02,3.36-3.45,5.48-4.14
		c3.25-1.05,7.1-0.42,10.56,1.71c3.37,2.09,5.88,5.26,7.69,7.79c4.21,5.88,7.47,12.42,9.68,19.43c0.12,0.37,0.24,0.75,0.37,1.16
		C152.66,70.46,155.05,77.95,153.81,82.62z"/>
	<path class="st2" d="M151.07,65.51c-0.13-0.4-0.25-0.79-0.37-1.16c-2.22-7.01-5.47-13.55-9.68-19.43
		c-1.81-2.53-4.33-5.71-7.69-7.79c-3.46-2.14-7.31-2.76-10.56-1.71c-2.12,0.69-4.02,2.12-5.48,4.14c-1.35,1.86-2.29,4.19-2.63,6.55
		c-0.08,0.58-0.15,1.32-0.15,2.14c0,0.12,0,0.25,0,0.37c0.01,0.25,0.02,0.51,0.05,0.77c0.01,0.13,0.03,0.26,0.04,0.4
		c0.01,0.08,0.02,0.17,0.03,0.25c0.01,0.1,0.03,0.2,0.05,0.29c0,0.03,0.01,0.06,0.01,0.08c0.02,0.1,0.03,0.19,0.05,0.28
		c0.03,0.13,0.05,0.26,0.08,0.39c0.01,0.06,0.03,0.12,0.05,0.18c0.02,0.1,0.05,0.19,0.08,0.29c0,0.01,0.01,0.03,0.01,0.05
		c0.01,0.02,0.02,0.05,0.02,0.07c0.03,0.08,0.04,0.15,0.07,0.23c0.03,0.1,0.06,0.19,0.09,0.28c0.01,0.04,0.03,0.08,0.04,0.12
		c0.04,0.1,0.08,0.19,0.11,0.28l0.05,0.13c0.05,0.12,0.11,0.24,0.16,0.36c0.05,0.1,0.1,0.2,0.16,0.31c0.01,0.01,0.01,0.02,0.02,0.03
		c0.02,0.05,0.04,0.08,0.07,0.13c0,0.01,0.01,0.02,0.01,0.03c0.04,0.08,0.08,0.15,0.13,0.23c0.01,0.02,0.02,0.03,0.03,0.04
		c0.01,0.03,0.03,0.06,0.05,0.09c0,0.01,0.01,0.01,0.01,0.02c0.05,0.07,0.09,0.15,0.15,0.22c0,0.01,0.01,0.02,0.02,0.03
		c0.03,0.05,0.06,0.1,0.1,0.15c0,0.01,0.01,0.01,0.02,0.02c0.07,0.1,0.14,0.2,0.21,0.29c1.76,2.27,4.5,3.43,7.16,4.56
		c0.26,0.11,0.52,0.22,0.79,0.33c5.84,2.5,11.33,5.79,16.33,9.8c2.79,2.22,5.14,4.88,7.42,7.44c1.76,1.99,3.58,4.04,5.57,5.85
		l0.05,0.04l0.02-0.07C155.05,77.95,152.66,70.46,151.07,65.51z M129.68,53.08c-2.41,0-4.37-1.96-4.37-4.37
		c0-2.41,1.96-4.37,4.37-4.37c2.41,0,4.37,1.96,4.37,4.37C134.05,51.12,132.09,53.08,129.68,53.08z"/>
	<path class="st1" d="M134.05,48.71c0,2.41-1.96,4.37-4.37,4.37c-2.41,0-4.37-1.96-4.37-4.37c0-2.41,1.96-4.37,4.37-4.37
		C132.09,44.34,134.05,46.3,134.05,48.71z"/>
	<path class="st1" d="M124.52,24.69c0,0.13,0,0.27-0.01,0.41v0.01c-0.01,0.13-0.02,0.25-0.03,0.37c0,0.02,0,0.04,0,0.07
		c-0.01,0.1-0.03,0.21-0.05,0.31c-0.01,0.07-0.02,0.14-0.03,0.21c0,0.01-0.01,0.03-0.01,0.05c-0.02,0.12-0.05,0.24-0.08,0.35
		c-0.01,0.06-0.03,0.12-0.05,0.17c-0.02,0.06-0.03,0.11-0.05,0.17c0,0.02-0.01,0.03-0.01,0.04c-0.02,0.08-0.04,0.15-0.07,0.22
		c-0.04,0.09-0.07,0.18-0.11,0.28c-0.03,0.07-0.06,0.15-0.09,0.22c-0.01,0.04-0.03,0.07-0.05,0.11c0,0,0,0,0,0.01
		c-0.03,0.07-0.06,0.13-0.09,0.2c-0.04,0.09-0.09,0.18-0.14,0.26c-0.12,0.23-0.26,0.45-0.41,0.66c-0.08,0.11-0.16,0.21-0.24,0.31v0
		c-0.16,0.2-0.34,0.4-0.52,0.58c-0.19,0.19-0.39,0.36-0.6,0.53c-1.21,0.94-2.67,1.43-4.2,1.43c-0.69,0-1.39-0.1-2.09-0.3
		c-2.66-0.69-4.83-2.26-6.46-4.67c-1.3-1.93-2.26-4.39-2.84-7.32c-0.99-4.99-0.56-9.67-0.56-9.71l0-0.05l0.05,0.01
		c0.05,0.01,4.83,1.2,9.51,3.6c2.75,1.41,4.92,2.96,6.45,4.6c1.92,2.05,2.85,4.26,2.75,6.56C124.52,24.49,124.52,24.59,124.52,24.69
		z"/>
</g>
</svg>
