<?xml version="1.0" encoding="utf-8"?>
<!-- Generator: Adobe Illustrator 27.9.0, SVG Export Plug-In . SVG Version: 6.00 Build 0)  -->
<svg version="1.1" id="Layer_1" xmlns="http://www.w3.org/2000/svg" xmlns:xlink="http://www.w3.org/1999/xlink" x="0px" y="0px"
	 viewBox="0 0 1080 1080" style="enable-background:new 0 0 1080 1080;" xml:space="preserve">
<style type="text/css">
	.st0{fill:#3D5B62;}
	.st1{fill:#A94227;}
	.st2{fill:#EAA048;}
	.st3{fill:#FCEED6;}
</style>
<g>
	<g>
		<path class="st0" d="M553.06,734.41c3.13,0.15,6.25,0.21,9.35,0.18v0.01c-8.72,0.86-25.12,1.88-33.95,1.88
			c-25.9,0-52.26-3.72-78.69-11.13c-33.52-9.42-66.16-24.45-97-44.69c-30.03-19.68-57-43.39-80.2-70.46
			c-23.37-27.28-41.75-56.64-54.56-87.22c-9.32-22.24-15.48-44.76-18.3-66.91c-2.95-23.13-2.28-45.85,2.04-67.58
			c9.41-47.42,35.54-89.25,77.65-124.3c51.1-37.58,95.33-46.8,134.36-54.92c5-1.04,14.24-2.45,17.24-3.68
			c1.4-0.57,2.25-1.7,2.77-2.92c2.01-4.67-2.28-11.94-5.12-16.73l-0.09-0.16c-3.99-6.45-4.05-11.31-2.07-12.78
			c0.44-0.33,1-0.49,1.61-0.49c2.06,0,4.89,1.81,7.76,5.05c1.84,1.94,3.54,4.2,5.2,6.39c1.8,2.36,3.64,4.79,5.7,6.93
			c5.21,5.64,10.79,7.26,14.71,6.25c0.45-0.17,0.87-0.32,1.33-0.49c0.64-0.28,1.21-0.69,1.7-1.13c3.3-3.03,3.42-9.58-3.7-17.43
			c-1.76-1.94-3.81-3.57-5.81-5.15c-2.38-1.89-4.81-3.82-6.68-6.24c-4.13-5.3-3.05-11.15,0.06-13.98c1.33-1.23,3.16-2.03,5.39-2.03
			c2.97,0,6.62,1.44,10.72,5.26c1.32,1.26,2.62,2.55,3.89,3.8c3.09,3.08,6.3,6.26,9.94,8.87c9.88,7.38,20.87,9.23,25.01,4.24
			c1.57-1.92,2.74-5.64-0.66-12.55c-1.57-3.18-3.93-6.66-7.03-10.4c-3.1-3.73-6.97-7.72-11.57-11.97
			c-6.86-6.15-8.56-11.95-7.84-15.32c0.44-2.07,1.74-3.52,3.75-4.17c5.16-1.66,13.49,2.09,22.29,10.06
			c6.07,5.76,24.9,10.8,31.5,5.67c1.99-1.58,3.62-4.84-0.11-11.46c-1.88-3.68-5.45-6.03-8.88-8.29c-2.89-1.91-5.87-3.85-7.87-6.59
			c-1.16-1.56-1.47-3.32-0.8-4.33c0.55-0.84,1.71-1.09,3.24-0.73c2.11,0.5,4.17,1.36,6.16,2.2c2.53,1.06,5.17,2.16,7.92,2.52
			c7.19,0.91,15.42-1.7,18.19-7.87c3.79-8.41,12.77-33.72,18.11-51.83c-6.02,31.59-13.41,57.48-22.79,78.9
			c-9.39,21.4-20.78,38.32-34.8,51.95c-26.07,25.34-58.58,37.5-99.72,52.9c-17.95,6.71-28.63,10.86-50.62,19.21
			c-1.36,0.51-12.41,5.06-15.41,7.38c-7.82,6.05-12.21,16.67-9.89,26.27c1,4.12,3.13,7.88,5.2,11.54c1.62,2.9,3.32,5.9,4.46,9.07
			c0.84,2.33,0.63,4.17-0.59,5.18c-1.47,1.24-4.22,1.06-6.84-0.46c-4.32-2.5-7.2-6.16-10.25-10.03
			c-3.91-4.98-7.97-10.11-15.36-12.88c-4.57-1.72-10.93-0.57-16.17,2.95c-5.23,3.5-8.31,8.47-8.46,13.65
			c-0.31,10.39,7.62,18.17,15.29,25.67c2.07,2.04,4.21,4.14,6.14,6.24l0.02,0.02c13.58,11.22,20.77,22.89,19.27,31.25
			c-0.63,3.47-2.8,6-6.11,7.16c-5.08,1.74-14.21,0.34-24.56-8.84c-22.32-19.37-41.33-28.31-52.16-24.52
			c-4.1,1.44-6.7,4.56-7.52,9.06c-1.65,8.91,4.05,20.63,14.15,29.15c4.78,5.26,10.39,9.83,15.83,14.26c1.95,1.58,3.96,3.22,5.9,4.87
			c11.45,9.79,11.47,18.86,7.69,24.09c-3.8,5.26-12.61,7.91-21.44,2.56c-4.01-2.45-7.4-5.87-10.65-9.16
			c-2.74-2.75-5.58-5.6-8.78-7.9c-11-7.74-17.99-6.31-21.2-4.76c-3.75,1.82-6.16,5.65-6.41,10.26c-0.38,6.68,3.66,13.54,10.58,17.91
			c3.6,2.79,7.63,5.16,11.54,7.48c3.62,2.15,7.39,4.37,10.66,6.86c7.12,4.94,10.5,10.26,8.59,13.55c-1.83,3.21-8.85,4.29-19.9-0.9
			c-1.04-0.45-2.07-0.93-3.1-1.4c-4.21-1.95-8.26-3.8-11.23-3.8c-1.07,0-2,0.24-2.76,0.8c-1.49,1.12-2.42,3.46-2.04,7.04
			c0.14,1.22,0.46,2.44,0.71,3.65c24.69,121.88,147.35,256.06,309.87,269.68c6.28,0.66,16.43,0.76,25.12,0.7
			C552.35,734.37,552.71,734.39,553.06,734.41z"/>
		<path class="st0" d="M562.41,734.59c-3.1,0.03-6.22-0.03-9.35-0.18c-0.35-0.02-0.71-0.04-1.06-0.06c3.71-0.03,7.16-0.08,9.93-0.13
			c0.16,0.02,0.3,0.04,0.44,0.02L562.41,734.59z"/>
		<path class="st0" d="M543.76,65.25c-53.19,5.95-90.67,20.01-117.71,44.11c-23.99,21.37-40.47,51.19-53.3,96.44
			c5.18-37.87,13.88-76.23,40.41-102.24C439.38,77.88,480.95,65.67,543.76,65.25z"/>
		<path class="st0" d="M344.36,415.35c-21.18,36.73-57.2,62.39-107.02,76.29c54.61-22.53,91.55-59.61,109.81-110.26
			c11.73-32.56,15.58-71.26,11.13-112.08C365.28,296.49,376.19,360.18,344.36,415.35z"/>
		<path class="st1" d="M707.9,654.12c-0.01,0.02-0.03,0.05-0.04,0.07c-31.3,47.92-85.51,79.93-145.45,80.4l-0.04-0.34
			c-0.14,0.02-0.28,0-0.44-0.02c-2.77,0.05-6.22,0.1-9.93,0.13c-80.04-4.2-156.28-54.33-189.95-125.01
			c-36.64-76.89-35.15-181.56,45.51-258.33c34.16-32.51,53.44-46.8,86.72-69.79c28.03-19.35,56.67-39.11,79.69-61.37
			c0.1,0.4,0.19,0.81,0.26,1.21c0.05,0.24,0.09,0.46,0.13,0.7c0.01,0.06,0.02,0.13,0.03,0.19l0.03,0.15
			c0.04,0.23,0.08,0.44,0.11,0.67c0.05,0.29,0.09,0.6,0.12,0.89c0.03,0.28,0.06,0.58,0.09,0.87c0.01,0.16,0.02,0.3,0.03,0.44
			c0.04,0.5,0.06,0.99,0.09,1.49c0.51,13.55-6.4,29.58-22.72,48.72c-16.85,19.78-39.52,39.3-59.54,56.51
			c-6.46,5.56-12.49,10.76-17.82,15.53c-5.35,4.77-10.02,9.16-13.79,13.1c-35.34,38.34-58.2,79.57-67.98,122.56
			c-8.68,38.2-6.47,77.25,6.35,112.93c11.75,32.65,31.94,61.6,58.39,83.71c26.54,22.16,56.56,34.87,89.45,39.35
			c8.95,1.22,17.81,1.82,26.57,1.82c9.24,0,18.34-0.68,27.22-2.02c15.92-2.44,31.21-7.04,45.46-13.7
			C669.62,694.14,693.55,673.4,707.9,654.12z"/>
		<path class="st1" d="M562.41,734.59c-3.1,0.03-6.22-0.03-9.35-0.18c-0.35-0.02-0.71-0.04-1.06-0.06c3.71-0.03,7.16-0.08,9.93-0.13
			c0.16,0.02,0.3,0.04,0.44,0.02L562.41,734.59z"/>
		<path class="st2" d="M688.32,409.89c-0.08,0.02-0.17,0.04-0.25,0.06c-1.12,0.26-2.23,0.49-3.33,0.72c-0.02,0-0.02,0-0.02,0
			c-1.47,0.29-2.93,0.57-4.36,0.84c-1.45,0.26-2.9,0.47-4.32,0.68c-0.89,0.13-1.8,0.26-2.69,0.36c-1.11,0.15-2.25,0.28-3.34,0.38
			c-1.15,0.13-2.27,0.23-3.38,0.3c-0.55,0.04-1.12,0.08-1.65,0.11c-1.27,0.08-2.53,0.14-3.77,0.18c-1.25,0.04-2.48,0.06-3.72,0.06
			c-1.36,0-2.7-0.02-4.04-0.06c-13.17-0.45-26.11-3.49-37.43-8.82c-12.19-5.74-22.24-14.08-29.1-24.12l-0.17-0.26l0.3-0.03
			c0.64-0.03,1.27-0.08,1.89-0.13c0.32-0.01,0.63-0.03,0.94-0.06c2.99-0.24,5.89-0.57,8.71-0.98c0.83-0.13,1.66-0.26,2.48-0.39
			c0.7-0.12,1.38-0.25,2.05-0.36c0.88-0.17,1.76-0.33,2.63-0.51c1.15-0.24,2.3-0.49,3.42-0.76c1.13-0.28,2.23-0.54,3.32-0.83
			c1.08-0.28,2.15-0.59,3.21-0.88c0.51-0.15,1.04-0.3,1.55-0.46c0.62-0.2,1.24-0.38,1.87-0.59c0.59-0.21,1.21-0.39,1.82-0.6
			c0.76-0.26,1.51-0.52,2.26-0.8c0.47-0.17,0.95-0.34,1.42-0.52c0.68-0.26,1.33-0.51,1.97-0.76c1.69-0.65,3.31-1.34,4.84-2.01
			c0.58-0.26,1.17-0.52,1.74-0.78c3.19-1.47,6.06-2.95,8.58-4.35c1.29-0.72,4.42-2.59,4.78-2.84c1.77-1.09,3.39-2.15,4.83-3.16
			c0.41-0.28,4.91-3.63,5.29-3.93c0.29-0.23,2.82-2.42,3.91-3.38c0.3-0.27,0.5-0.43,0.5-0.43c-4.29,14.96-3.26,28.47,3.49,38.76
			C669.83,397.58,676.98,405.26,688.32,409.89z"/>
		<path class="st2" d="M707.92,654.09c0,0.01-0.01,0.02-0.02,0.03c-14.35,19.28-38.28,40.02-61.47,50.85
			c-14.25,6.65-29.54,11.26-45.46,13.7c-8.88,1.35-17.99,2.02-27.22,2.02c-8.75,0-17.62-0.6-26.57-1.82
			c-32.89-4.48-62.92-17.18-89.45-39.35c-26.45-22.11-46.64-51.06-58.39-83.71c-12.82-35.67-15.02-74.73-6.35-112.93
			c9.78-42.99,32.64-84.23,67.98-122.56c3.77-3.94,8.45-8.33,13.79-13.1c5.33-4.77,11.36-9.97,17.82-15.53
			c20.01-17.21,42.69-36.73,59.54-56.51c16.33-19.14,23.24-35.17,22.72-48.72c-0.02-0.5-0.04-1-0.09-1.49
			c-0.01-0.14-0.02-0.28-0.03-0.44c-0.03-0.29-0.05-0.58-0.09-0.87c-0.03-0.29-0.07-0.6-0.12-0.89c-0.03-0.23-0.07-0.44-0.11-0.67
			l-0.03-0.15c-0.01-0.06-0.02-0.13-0.03-0.19c-0.04-0.24-0.08-0.46-0.13-0.7c-0.07-0.4-0.16-0.81-0.26-1.21
			c13.62-13.17,25.53-27.52,33.89-42.85c2.92-4.27,5.75-11.28,8.39-19.82c0-0.03,0.02-0.08,0.04-0.11
			c3.19-9.22,6.74-24.02,9.21-37.48c-2.52,25.37,1.99,43.6,7.64,58.29c0,0.02,0.01,0.05,0.03,0.07c1.93,5.54,4,10.52,6,14.94
			c4.53,10.02,8.79,18.78,9.06,27.88c0.01,0.49,0.01,0.99,0,1.49c0,0.2,0,0.39-0.01,0.59c-0.03,0.67-0.07,1.35-0.15,2.01
			c-0.03,0.31-0.07,0.63-0.12,0.94c-1.39,9.68-7.6,19.59-18.78,30.94c-9.29,9.44-25.73,23.96-44.76,40.78
			c-33.21,29.31-70.85,62.54-84.61,81.28c-9.53,11.56-17.73,23.19-24.73,34.82c-0.04,0.07-0.08,0.14-0.12,0.21
			c-29.4,47.34-39.54,94.92-29.41,139.36c11.52,50.53,49.56,95.11,101.73,119.26C591.37,692.89,659.88,700.3,707.92,654.09z"/>
		<path class="st3" d="M881.48,371.79c-3.37-51.69-15.87-97.24-39.32-143.31c-10.6-20.81-27.11-44.11-49.04-69.26
			c-39.63-41.86-80.49-66.52-107.78-79.81c-28.04-13.67-47.89-18.48-50.02-18.99c-0.35,2.64-4.14,30.72-9.88,59.19h0.04
			c-2.52,25.37,1.99,43.6,7.64,58.29c0,0.02,0.01,0.05,0.03,0.07c1.93,5.54,4,10.52,6,14.94c4.53,10.02,8.79,18.78,9.06,27.88
			c0.01,0.49,0.01,0.99,0,1.49c0,0.2,0,0.39-0.01,0.59c-0.03,0.67-0.07,1.35-0.15,2.01c-0.03,0.31-0.07,0.63-0.12,0.94
			c-1.39,9.68-7.6,19.59-18.78,30.94c-9.29,9.44-25.73,23.96-44.76,40.78c-33.21,29.31-70.85,62.54-84.61,81.28
			c-9.53,11.56-17.73,23.19-24.73,34.82c-0.04,0.07-0.08,0.14-0.12,0.21c-29.4,47.34-39.54,94.92-29.41,139.36
			c11.52,50.53,49.56,95.11,101.73,119.26c44.1,20.41,112.61,27.81,160.65-18.39c0.01,0,0.01-0.01,0.01-0.01
			c20.94-39.81,18.12-89.09-7.09-122.63c-26.84-35.75-77.63-49.01-115.57-30.16c-8.73,4.33-20.65,10.28-27.91,3.19
			c-6.17-5.92-3.34-16.15,0.95-23.1c14.74-23.9,43.89-38.48,89.16-44.58c5.22-0.69,10.58-1.34,15.78-1.96
			c28.92-3.46,58.81-7.01,82.94-23.14c2.74-1.84,5.67-4.17,6.42-7.45c0.46-1.99,0.02-4.05-1.28-5.95c-1.74-2.53-4.73-4.38-7.81-4.81
			c-5.23-0.74-10.35,1.32-15.3,3.31l-0.23,0.08c-13.85,5.62-25.3,9.49-35.97,12.13l-0.56,0.14c-1.04,0.27-2.09,0.5-3.13,0.74h-0.01
			c-0.08,0.02-0.17,0.04-0.25,0.06c-1.12,0.26-2.23,0.49-3.33,0.72c-0.02,0-0.02,0-0.02,0c-1.47,0.29-2.93,0.57-4.36,0.84
			c-1.45,0.26-2.9,0.47-4.32,0.68c-0.89,0.13-1.8,0.26-2.69,0.36c-1.11,0.15-2.25,0.28-3.34,0.38c-1.15,0.13-2.27,0.23-3.38,0.3
			c-0.55,0.04-1.12,0.08-1.65,0.11c-1.27,0.08-2.53,0.14-3.77,0.18c-1.25,0.04-2.48,0.06-3.72,0.06c-1.36,0-2.7-0.02-4.04-0.06
			c-13.17-0.45-26.11-3.49-37.43-8.82c-12.19-5.74-22.24-14.08-29.1-24.12l-0.17-0.26l0.3-0.03c0.64-0.03,1.27-0.08,1.89-0.13
			c0.32-0.01,0.63-0.03,0.94-0.06c2.99-0.24,5.89-0.57,8.71-0.98c0.83-0.13,1.66-0.26,2.48-0.39c0.7-0.12,1.38-0.25,2.05-0.36
			c0.88-0.17,1.76-0.33,2.63-0.51c1.15-0.24,2.3-0.49,3.42-0.76c1.13-0.28,2.23-0.54,3.32-0.83c1.08-0.28,2.15-0.59,3.21-0.88
			c0.51-0.15,1.04-0.3,1.55-0.46c0.62-0.2,1.24-0.38,1.87-0.59c0.59-0.21,1.21-0.39,1.82-0.6c0.76-0.26,1.51-0.52,2.26-0.8
			c0.47-0.17,0.95-0.34,1.42-0.52c0.68-0.26,1.33-0.51,1.97-0.76c1.69-0.65,3.31-1.34,4.84-2.01c0.58-0.26,1.17-0.52,1.74-0.78
			c3.19-1.47,6.06-2.95,8.58-4.35c1.29-0.72,4.42-2.59,4.78-2.84c1.77-1.09,3.39-2.15,4.83-3.16c0.41-0.28,4.91-3.63,5.29-3.93
			c0.29-0.23,2.82-2.42,3.91-3.38c0.3-0.27,0.5-0.43,0.5-0.43s26.9-1.41,56.39,3.18c18.34,2.83,35.25,7.33,50.27,13.31
			c18.78,7.51,34.67,17.41,47.2,29.41c5.5,5.28,19.59,20.86,31.19,51.56c6.43,17.08,1.83,48.04-5.99,53.81
			c-2.77,2.02-3.85,4.53-3.04,7.03c1.15,3.51,5.76,6.06,10.97,6.06c3.67,0.24,10.5-0.23,13.08-3.45c1.03-1.29,1.27-2.9,0.72-4.81
			c-1.8-6.21,3.38-23.31,8.37-39.86c3.4-11.21,6.91-22.82,8.17-30.82C881.87,414.32,882.87,393.26,881.48,371.79z M665.45,162.7
			c-5.61-8.3-9.73-18.89-12.24-31.52c-4.26-21.47-2.42-41.61-2.4-41.81l0.02-0.21l0.21,0.05c0.2,0.04,20.81,5.16,40.94,15.48
			c11.83,6.06,21.17,12.73,27.77,19.8c8.28,8.83,12.27,18.33,11.85,28.23c0.02,0.45,0.04,0.89,0.04,1.34c0,0.58-0.02,1.17-0.06,1.76
			v0.06c-0.03,0.54-0.08,1.08-0.13,1.6c-0.02,0.1-0.02,0.19-0.02,0.28c-0.06,0.44-0.13,0.88-0.21,1.32
			c-0.04,0.29-0.08,0.6-0.14,0.88c-0.02,0.06-0.03,0.14-0.05,0.21c-0.1,0.5-0.21,1.01-0.32,1.52c-0.06,0.25-0.14,0.5-0.2,0.74
			c-0.07,0.26-0.15,0.49-0.23,0.75c-0.01,0.07-0.03,0.11-0.05,0.18c-0.08,0.33-0.19,0.65-0.28,0.96c-0.16,0.39-0.28,0.8-0.45,1.19
			c-0.12,0.31-0.25,0.64-0.38,0.93c-0.06,0.16-0.15,0.31-0.21,0.47c0,0.02-0.02,0.02-0.02,0.04c-0.13,0.28-0.27,0.58-0.39,0.86
			c-0.19,0.38-0.39,0.77-0.59,1.13c-0.53,0.99-1.13,1.95-1.77,2.85c-0.32,0.46-0.67,0.91-1.01,1.35v0.01
			c-0.7,0.87-1.44,1.72-2.25,2.51c-0.81,0.81-1.66,1.55-2.56,2.27c-5.2,4.05-11.48,6.16-18.07,6.16c-2.98,0-5.98-0.43-9-1.29
			C681.81,179.84,672.44,173.07,665.45,162.7z M857.72,403.41l-0.08,0.28l-0.21-0.19c-8.58-7.81-16.42-16.64-23.99-25.19
			c-9.79-11.05-19.93-22.49-31.94-32.04c-21.52-17.23-45.15-31.42-70.28-42.17c-1.14-0.47-2.25-0.95-3.39-1.42
			c-11.43-4.86-23.26-9.88-30.81-19.64c-0.3-0.42-0.64-0.84-0.92-1.27c-0.02-0.03-0.06-0.06-0.08-0.09
			c-0.16-0.23-0.28-0.43-0.43-0.65c-0.04-0.04-0.06-0.09-0.08-0.12c-0.23-0.31-0.43-0.63-0.63-0.94c-0.01-0.04-0.03-0.05-0.05-0.09
			c-0.08-0.12-0.17-0.27-0.23-0.39c-0.04-0.06-0.08-0.11-0.12-0.18c-0.21-0.32-0.39-0.65-0.57-0.97c-0.02-0.05-0.05-0.09-0.05-0.13
			c-0.13-0.2-0.22-0.36-0.3-0.56c-0.02-0.03-0.04-0.08-0.07-0.11c-0.25-0.44-0.46-0.88-0.67-1.32c-0.23-0.52-0.47-1.03-0.7-1.55
			l-0.23-0.57c-0.17-0.41-0.32-0.81-0.49-1.22c-0.06-0.18-0.13-0.34-0.19-0.52c-0.14-0.39-0.27-0.8-0.38-1.21
			c-0.13-0.32-0.21-0.65-0.31-0.98c-0.03-0.09-0.06-0.2-0.1-0.29c0-0.07-0.04-0.15-0.04-0.21c-0.13-0.41-0.25-0.83-0.33-1.24
			c-0.08-0.27-0.14-0.52-0.2-0.79c-0.14-0.56-0.25-1.11-0.36-1.67c-0.07-0.41-0.15-0.81-0.22-1.22c-0.03-0.11-0.05-0.24-0.06-0.36
			c-0.08-0.42-0.15-0.85-0.2-1.27c-0.05-0.36-0.11-0.73-0.15-1.09c-0.06-0.57-0.12-1.14-0.17-1.71c-0.1-1.13-0.16-2.25-0.2-3.32
			c-0.01-0.54-0.01-1.08-0.01-1.6c0-3.55,0.3-6.72,0.66-9.22c1.49-10.16,5.51-20.15,11.34-28.18c6.29-8.68,14.45-14.84,23.58-17.81
			c14-4.51,30.57-1.82,45.46,7.38c14.49,8.98,25.31,22.65,33.12,33.54c18.12,25.32,32.14,53.45,41.68,83.63
			c0.51,1.58,1.04,3.24,1.59,4.98C852.74,351.07,863.04,383.31,857.72,403.41z"/>
		<path class="st2" d="M845.93,329.74c-0.55-1.74-1.08-3.4-1.59-4.98c-9.54-30.18-23.56-58.31-41.68-83.63
			c-7.81-10.9-18.63-24.56-33.12-33.54c-14.89-9.2-31.46-11.89-45.46-7.38c-9.13,2.98-17.29,9.14-23.58,17.81
			c-5.83,8.03-9.84,18.02-11.34,28.18c-0.36,2.5-0.66,5.67-0.66,9.22c0,0.52,0,1.06,0.01,1.6c0.04,1.07,0.1,2.19,0.2,3.32
			c0.05,0.57,0.11,1.14,0.17,1.71c0.04,0.36,0.1,0.73,0.15,1.09c0.05,0.41,0.12,0.84,0.2,1.27c0.01,0.13,0.03,0.26,0.06,0.36
			c0.07,0.41,0.15,0.81,0.22,1.22c0.12,0.56,0.23,1.11,0.36,1.67c0.06,0.27,0.12,0.52,0.2,0.79c0.09,0.41,0.21,0.83,0.33,1.24
			c0,0.06,0.04,0.14,0.04,0.21c0.04,0.1,0.07,0.21,0.1,0.29c0.11,0.33,0.19,0.66,0.31,0.98c0.12,0.41,0.25,0.82,0.38,1.21
			c0.06,0.18,0.13,0.34,0.19,0.52c0.17,0.41,0.32,0.81,0.49,1.22l0.23,0.57c0.23,0.52,0.47,1.03,0.7,1.55
			c0.21,0.43,0.42,0.87,0.67,1.32c0.03,0.03,0.05,0.08,0.07,0.11c0.09,0.2,0.18,0.36,0.3,0.56c0,0.04,0.03,0.08,0.05,0.13
			c0.18,0.32,0.36,0.65,0.57,0.97c0.04,0.07,0.08,0.12,0.12,0.18c0.06,0.13,0.15,0.28,0.23,0.39c0.02,0.04,0.04,0.05,0.05,0.09
			c0.2,0.31,0.4,0.63,0.63,0.94c0.02,0.03,0.04,0.08,0.08,0.12c0.15,0.22,0.28,0.42,0.43,0.65c0.02,0.03,0.06,0.06,0.08,0.09
			c0.28,0.43,0.62,0.84,0.92,1.27c7.56,9.76,19.38,14.78,30.81,19.64c1.14,0.47,2.25,0.95,3.39,1.42
			c25.12,10.75,48.76,24.94,70.28,42.17c12.01,9.55,22.14,20.99,31.94,32.04c7.57,8.55,15.41,17.38,23.99,25.19l0.21,0.19l0.08-0.28
			C863.04,383.31,852.74,351.07,845.93,329.74z M753.84,276.25c-10.36,0-18.8-8.44-18.8-18.81c0-10.37,8.44-18.81,18.8-18.81
			c10.37,0,18.81,8.44,18.81,18.81C772.65,267.82,764.21,276.25,753.84,276.25z"/>
		<path class="st1" d="M772.65,257.44c0,10.37-8.44,18.81-18.81,18.81c-10.36,0-18.8-8.44-18.8-18.81c0-10.37,8.44-18.81,18.8-18.81
			C764.21,238.63,772.65,247.07,772.65,257.44z"/>
		<path class="st1" d="M731.64,154.06c0,0.58-0.02,1.17-0.06,1.76v0.06c-0.03,0.54-0.08,1.08-0.13,1.6
			c-0.02,0.1-0.02,0.19-0.02,0.28c-0.06,0.44-0.13,0.88-0.21,1.32c-0.04,0.29-0.08,0.6-0.14,0.88c-0.02,0.06-0.03,0.14-0.05,0.21
			c-0.1,0.5-0.21,1.01-0.32,1.52c-0.06,0.25-0.14,0.5-0.2,0.74c-0.07,0.26-0.15,0.49-0.23,0.75c-0.01,0.07-0.03,0.11-0.05,0.18
			c-0.08,0.33-0.19,0.65-0.28,0.96c-0.16,0.39-0.28,0.8-0.45,1.19c-0.12,0.31-0.25,0.64-0.38,0.93c-0.06,0.16-0.15,0.31-0.21,0.47
			c0,0.02-0.02,0.02-0.02,0.04c-0.13,0.28-0.27,0.58-0.39,0.86c-0.19,0.38-0.39,0.77-0.59,1.13c-0.53,0.99-1.13,1.95-1.77,2.85
			c-0.32,0.46-0.67,0.91-1.01,1.35v0.01c-0.7,0.87-1.44,1.72-2.25,2.51c-0.81,0.81-1.66,1.55-2.56,2.27
			c-5.2,4.05-11.48,6.16-18.07,6.16c-2.98,0-5.98-0.43-9-1.29c-11.44-2.96-20.81-9.73-27.8-20.09c-5.61-8.3-9.73-18.89-12.24-31.52
			c-4.26-21.47-2.42-41.61-2.4-41.81l0.02-0.21l0.21,0.05c0.2,0.04,20.81,5.16,40.94,15.48c11.83,6.06,21.17,12.73,27.77,19.8
			c8.28,8.83,12.27,18.33,11.85,28.23C731.62,153.17,731.64,153.61,731.64,154.06z"/>
	</g>
	<g>
		<path d="M205.71,946.47l25.86-13.5c2.92,5.89,6.73,10.24,11.46,13.03c4.72,2.79,9.9,4.18,15.54,4.18c6.91,0,12.04-1.31,15.4-3.95
			c3.36-2.63,5.04-6.26,5.04-10.89c0-4.75-1.82-8.49-5.47-11.22c-3.65-2.72-9.4-4.82-17.26-6.27c-15.09-2.92-26.16-7.59-33.23-14.02
			c-7.07-6.43-10.6-15.32-10.6-26.67c0-12.93,4.56-23.26,13.69-31c9.13-7.73,21.17-11.6,36.13-11.6c10.2,0,19.14,2.06,26.81,6.18
			c7.67,4.12,13.69,10.02,18.06,17.68l-25.29,13.03c-2.54-4.31-5.42-7.43-8.65-9.37c-3.23-1.93-7.42-2.9-12.55-2.9
			c-5.96,0-10.54,1.3-13.74,3.9c-3.2,2.6-4.8,5.86-4.8,9.79c0,3.99,1.58,7.21,4.75,9.65c3.17,2.44,9.09,4.42,17.78,5.94
			c14.45,2.6,25.37,7.4,32.75,14.4c7.38,7,11.08,16.5,11.08,28.48c0,13.56-4.34,24.32-13.03,32.28
			c-8.68,7.96-21.08,11.93-37.17,11.93c-11.66,0-22.17-2.55-31.52-7.65C217.42,962.81,210.4,955.66,205.71,946.47z"/>
		<path d="M410.79,973.19h-81.77V836.85h78.63v25.48h-47.92v29.66h44.59v25.29h-44.59v30.42h51.06V973.19z"/>
		<path d="M553.41,973.19h-30.99l-56.19-84.14c-1.59-2.53-2.92-4.74-3.99-6.61c-1.08-1.87-1.9-3.44-2.47-4.71h-0.38
			c0.13,2.41,0.22,5.45,0.29,9.13c0.06,3.68,0.09,7.99,0.09,12.93v73.4h-29V836.85h33.09l54.1,81.48c1.14,1.84,2.27,3.69,3.38,5.56
			c1.11,1.87,2.14,3.72,3.09,5.56h0.38c-0.13-1.58-0.22-3.95-0.29-7.08c-0.06-3.14-0.1-7.02-0.1-11.65v-73.87h29V973.19z"/>
		<path d="M694.59,959.5c-6.53,4.75-14.06,8.62-22.58,11.6c-8.53,2.98-17.13,4.47-25.81,4.47c-22.57,0-40.22-6.07-52.96-18.21
			c-12.74-12.14-19.11-28.86-19.11-50.15c0-21.42,6.4-38.89,19.21-52.39c12.8-13.5,28.93-20.25,48.39-20.25
			c13.69,0,25,2.6,33.94,7.8c8.94,5.2,15.66,12.07,20.16,20.63l-24.82,12.36c-3.17-5.26-7.04-9.03-11.6-11.31
			c-4.56-2.28-9.64-3.42-15.21-3.42c-10.78,0-19.7,3.88-26.76,11.65c-7.07,7.76-10.6,18.68-10.6,32.75
			c0,14.39,3.5,25.38,10.51,32.99c7,7.61,16.21,11.41,27.62,11.41c3.42,0,6.8-0.4,10.13-1.19c3.33-0.79,6.26-1.98,8.79-3.57v-22.15
			H636.6v-25.48h58V959.5z"/>
		<path d="M751.16,973.19h-30.71V836.85h30.71V973.19z"/>
		<path d="M773.41,946.47l25.86-13.5c2.91,5.89,6.73,10.24,11.46,13.03c4.72,2.79,9.9,4.18,15.54,4.18c6.91,0,12.04-1.31,15.4-3.95
			c3.36-2.63,5.04-6.26,5.04-10.89c0-4.75-1.82-8.49-5.47-11.22c-3.65-2.72-9.4-4.82-17.26-6.27c-15.09-2.92-26.16-7.59-33.23-14.02
			c-7.07-6.43-10.6-15.32-10.6-26.67c0-12.93,4.56-23.26,13.69-31c9.13-7.73,21.17-11.6,36.13-11.6c10.2,0,19.14,2.06,26.81,6.18
			c7.67,4.12,13.69,10.02,18.06,17.68l-25.29,13.03c-2.54-4.31-5.42-7.43-8.65-9.37c-3.23-1.93-7.42-2.9-12.55-2.9
			c-5.96,0-10.54,1.3-13.74,3.9c-3.2,2.6-4.8,5.86-4.8,9.79c0,3.99,1.58,7.21,4.75,9.65c3.17,2.44,9.09,4.42,17.78,5.94
			c14.45,2.6,25.37,7.4,32.75,14.4c7.38,7,11.08,16.5,11.08,28.48c0,13.56-4.34,24.32-13.03,32.28
			c-8.68,7.96-21.08,11.93-37.17,11.93c-11.66,0-22.17-2.55-31.52-7.65C785.12,962.81,778.1,955.66,773.41,946.47z"/>
	</g>
</g>
</svg>
